<?xml version="1.0" encoding="UTF-8" standalone="no"?><!DOCTYPE svg PUBLIC "-//W3C//DTD SVG 1.1//EN" "http://www.w3.org/Graphics/SVG/1.1/DTD/svg11.dtd"><svg width="100%" height="100%" viewBox="0 0 60 82" version="1.1" xmlns="http://www.w3.org/2000/svg" xmlns:xlink="http://www.w3.org/1999/xlink" xml:space="preserve" style="fill-rule:evenodd;clip-rule:evenodd;stroke-linejoin:round;stroke-miterlimit:1.41421;"><g><path d="M12.066,50.887c2.92,-6.633 9.034,-9.907 15.862,-9.824c-8.663,-8.992 -16.187,-12.614 -22.573,-10.865c0.849,4.956 4.296,9.17 10.341,12.64c-6.956,-2.196 -12.188,-7.508 -15.696,-15.937c10.436,-1.773 18.652,0.799 24.651,7.712c-5.47,-11.696 -3.688,-23.235 5.349,-34.613c9.037,11.378 10.818,22.917 5.349,34.613c5.999,-6.913 14.215,-9.485 24.651,-7.712c-3.508,8.429 -8.74,13.741 -15.696,15.937c6.045,-3.47 9.492,-7.684 10.341,-12.64c-6.386,-1.749 -13.91,1.873 -22.574,10.865c6.829,-0.083 12.943,3.191 15.863,9.824c-5.161,1.155 -9.404,0.364 -12.729,-2.37c3.633,1.836 6.768,2.11 9.405,0.821c-1.155,-3.491 -6.261,-5.904 -12.79,-7.238c3.725,6.452 3.118,12.81 -1.82,19.072c-4.939,-6.262 -5.545,-12.62 -1.82,-19.072c-6.529,1.334 -11.635,3.747 -12.79,7.238c2.637,1.289 5.772,1.015 9.405,-0.821c-3.325,2.734 -7.568,3.525 -12.729,2.37Zm17.934,-44.515c-7.918,9.986 -7.918,20.147 0,30.482c7.918,-10.335 7.918,-20.496 0,-30.482Zm0,37.198c-3.449,4.557 -3.45,9.038 0,13.443c3.45,-4.405 3.449,-8.886 0,-13.443Z" style="fill:#ababab;"/><g><path d="M32.272,67.551c1.054,0 1.909,1.157 1.909,2.582l0,5.163c0,1.425 -0.855,2.582 -1.909,2.582l-18.369,0c-1.054,0 -1.909,-1.157 -1.909,-2.582l0,-5.163c0,-1.425 0.855,-2.582 1.909,-2.582l18.369,0Zm-1.382,1.845l-15.605,0c-0.677,0 -1.226,0.744 -1.226,1.659l0,3.318c0,0.916 0.549,1.659 1.226,1.659l15.605,0c0.677,0 1.226,-0.743 1.226,-1.659l0,-3.318c0,-0.915 -0.549,-1.659 -1.226,-1.659Z" style="fill:#ababab;"/><path d="M46.097,71.379c1.054,0 1.909,1.157 1.909,2.582l0,5.163c0,1.425 -0.855,2.582 -1.909,2.582l-18.369,0c-1.054,0 -1.909,-1.157 -1.909,-2.582l0,-5.163c0,-1.425 0.855,-2.582 1.909,-2.582l18.369,0Zm-1.382,1.845l-15.605,0c-0.677,0 -1.226,0.744 -1.226,1.659l0,3.318c0,0.916 0.549,1.659 1.226,1.659l15.605,0c0.677,0 1.226,-0.743 1.226,-1.659l0,-3.318c0,-0.915 -0.549,-1.659 -1.226,-1.659Z" style="fill:#ababab;"/></g></g></svg>