<?xml version="1.0" encoding="UTF-8" standalone="no"?><!DOCTYPE svg PUBLIC "-//W3C//DTD SVG 1.1//EN" "http://www.w3.org/Graphics/SVG/1.1/DTD/svg11.dtd"><svg width="100%" height="100%" viewBox="0 0 170 170" version="1.1" xmlns="http://www.w3.org/2000/svg" xmlns:xlink="http://www.w3.org/1999/xlink" xml:space="preserve" style="fill-rule:evenodd;clip-rule:evenodd;stroke-linejoin:round;stroke-miterlimit:1.41421;"><path d="M84.75,0c46.775,0 84.75,37.975 84.75,84.75c0,46.775 -37.975,84.75 -84.75,84.75c-46.775,0 -84.75,-37.975 -84.75,-84.75c0,-46.775 37.975,-84.75 84.75,-84.75Zm-43.211,137.092c0,-15.857 19.362,-28.732 43.211,-28.732c23.849,0 43.211,12.875 43.211,28.732c-8.582,-6.409 -24.99,-11.613 -43.211,-11.613c-18.221,0 -34.629,5.204 -43.211,11.613Zm74.131,-85.458c6.527,0 11.826,7.482 11.826,16.697c0,9.215 -5.299,16.697 -11.826,16.697c-6.527,0 -11.826,-7.482 -11.826,-16.697c0,-9.215 5.299,-16.697 11.826,-16.697Zm-60.907,-0.293c6.527,0 11.826,7.482 11.826,16.697c0,9.216 -5.299,16.697 -11.826,16.697c-6.527,0 -11.826,-7.481 -11.826,-16.697c0,-9.215 5.299,-16.697 11.826,-16.697Z" style="fill:#beece3;"/></svg>