<?xml version="1.0" encoding="UTF-8" standalone="no"?><!DOCTYPE svg PUBLIC "-//W3C//DTD SVG 1.1//EN" "http://www.w3.org/Graphics/SVG/1.1/DTD/svg11.dtd"><svg width="100%" height="100%" viewBox="0 0 41 39" version="1.1" xmlns="http://www.w3.org/2000/svg" xmlns:xlink="http://www.w3.org/1999/xlink" xml:space="preserve" style="fill-rule:evenodd;clip-rule:evenodd;stroke-linecap:round;stroke-linejoin:round;stroke-miterlimit:1.5;"><g><ellipse cx="20.338" cy="19.32" rx="19.213" ry="18.195" style="fill:none;stroke:#ababab;stroke-width:2.25px;"/><path d="M19.875,1.147c-5.956,0 -10.791,8.143 -10.791,18.173c0,10.03 4.835,18.174 10.791,18.174c-5.956,0 -10.791,-8.144 -10.791,-18.174c0,-10.03 4.835,-18.173 10.791,-18.173Z" style="fill:none;stroke:#ababab;stroke-width:2.25px;"/><path d="M20.812,1.147c5.955,0 10.791,8.143 10.791,18.173c0,10.03 -4.836,18.174 -10.791,18.174c5.955,0 10.791,-8.144 10.791,-18.174c0,-10.03 -4.836,-18.173 -10.791,-18.173Z" style="fill:none;stroke:#ababab;stroke-width:2.25px;"/><path d="M39.553,17.462c0,5.702 -8.607,10.331 -19.208,10.331c-10.601,0 -19.208,-4.629 -19.208,-10.331c0,5.702 8.607,10.331 19.208,10.331c10.601,0 19.208,-4.629 19.208,-10.331Z" style="fill:none;stroke:#ababab;stroke-width:2.25px;"/><path d="M20.445,1.301l-0.251,36.058" style="fill:none;stroke:#ababab;stroke-width:2.25px;"/><path d="M36.372,9.44c0,4.267 -7.193,7.731 -16.053,7.731c-8.86,0 -16.053,-3.464 -16.053,-7.731c0,4.267 7.193,7.731 16.053,7.731c8.86,0 16.053,-3.464 16.053,-7.731Z" style="fill:none;stroke:#ababab;stroke-width:2.25px;"/></g></svg>